# xmcd
#
# Track frame offsets:
#	150
#	10783
#	33713
#	40044
#	74454
#	110916
#	144775
#	152287
#	189651
#	206491
#	268716
# Disc length: 3806 seconds
# Revision: 1
# Processed by: cddbd v1.5.2PL0 Copyright (c) Steve Scherf et al.
#
# Submitted via: libkcddb 0.31
#
DISCID=940edc0b
DTITLE=TAYLOR, OTIS - frankfurt 27/10/06
DYEAR=2006
DGENRE=
TTITLE0=Intro
TTITLE1=Looking Over Your Fence
TTITLE2=casey and otis talking
TTITLE3=few feet away
TTITLE4=Hookers In The Street
TTITLE5=They Wore Blue
TTITLE6=hurry home
TTITLE7=hambone
TTITLE8=band introduction
TTITLE9=black witch - mandan woman
TTITLE10=just live your life
EXTD=27/10/06, 37. deutsches jazzfestival, Frankfurt, DE
EXTT0=
EXTT1=
EXTT2=
EXTT3=
EXTT4=
EXTT5=
EXTT6=
EXTT7=
EXTT8=
EXTT9=
EXTT10=
PLAYORDER=
